<svg width="2384" height="740" viewBox="0 0 2384 740" fill="none" xmlns="http://www.w3.org/2000/svg">
<g opacity="0.03">
<path d="M341.5 162.689H142.159V253.16H337.529V390.453H142.159V580.918H0V25.3953H341.5V162.689Z" fill="#3C4D5C"/>
<path d="M685.842 184.116H817.677V580.918H685.842V544.413C658.84 576.157 621.249 592.029 573.068 592.029C520.122 592.029 475.648 572.189 439.644 532.509C404.171 492.299 386.434 442.302 386.434 382.517C386.434 322.732 404.171 273 439.644 233.32C475.648 193.11 520.122 173.006 573.068 173.006C621.249 173.006 658.84 188.878 685.842 220.622V184.116ZM542.095 445.212C557.449 461.084 577.568 469.02 602.453 469.02C627.337 469.02 647.457 461.084 662.811 445.212C678.165 429.34 685.842 408.442 685.842 382.517C685.842 356.593 678.165 335.695 662.811 319.823C647.457 303.95 627.337 296.014 602.453 296.014C577.568 296.014 557.449 303.95 542.095 319.823C526.74 335.695 519.063 356.593 519.063 382.517C519.063 408.442 526.74 429.34 542.095 445.212Z" fill="#3C4D5C"/>
<path d="M1349.97 173.006C1396.03 173.006 1432.3 187.82 1458.77 217.448C1485.77 246.546 1499.28 286.756 1499.28 338.075V580.918H1366.65V353.154C1366.65 316.119 1350.23 297.602 1317.41 297.602C1299.41 297.602 1285.64 303.686 1276.11 315.855C1267.11 327.494 1262.61 343.631 1262.61 364.264V580.918H1130.77V353.154C1130.77 316.119 1114.1 297.602 1080.74 297.602C1062.74 297.602 1048.97 303.686 1039.44 315.855C1030.44 327.494 1025.94 343.631 1025.94 364.264V580.918H894.106V184.116H1025.94V221.416C1050.3 189.142 1086.03 173.006 1133.16 173.006C1178.69 173.006 1212.57 189.936 1234.81 223.796C1262.34 189.936 1300.73 173.006 1349.97 173.006Z" fill="#3C4D5C"/>
<path d="M1689.53 129.358C1674.71 144.171 1656.97 151.578 1636.32 151.578C1615.67 151.578 1597.67 144.171 1582.32 129.358C1567.49 114.015 1560.08 96.0261 1560.08 75.3924C1560.08 54.7587 1567.49 37.0349 1582.32 22.2209C1597.67 7.40697 1615.67 0 1636.32 0C1656.97 0 1674.71 7.40697 1689.53 22.2209C1704.89 37.0349 1712.56 54.7587 1712.56 75.3924C1712.56 96.0261 1704.89 114.015 1689.53 129.358ZM1570.41 580.918V184.116H1702.24V580.918H1570.41Z" fill="#3C4D5C"/>
<path d="M1778.26 580.918V1.58724H1910.09V580.918H1778.26Z" fill="#3C4D5C"/>
<path d="M2237.87 184.116H2384L2248.19 574.57C2227.02 634.354 2197.1 677.474 2158.45 703.927C2119.8 730.381 2069.77 742.285 2008.35 739.639V615.837C2036.41 615.837 2057.59 612.398 2071.88 605.52C2086.18 598.642 2097.83 586.209 2106.83 568.221L1947.99 184.116H2095.71L2175.92 414.261L2237.87 184.116Z" fill="#3C4D5C"/>
</g>
</svg>
