<svg width="100" height="100" viewBox="0 0 100 100" fill="none" xmlns="http://www.w3.org/2000/svg">
<g id="&#208;&#152;&#208;&#189;&#209;&#130;&#208;&#181;&#209;&#128;&#209;&#132;&#208;&#181;&#208;&#185;&#209;&#129;">
<path id="Vector" d="M23.4535 73.453C22.599 74.3071 22.5987 75.6922 23.4528 76.5466C24.3069 77.4011 25.6919 77.4014 26.5464 76.5473L23.4535 73.453ZM45.833 22.8153C44.6249 22.8153 43.6455 23.7947 43.6455 25.0028C43.6455 26.2109 44.6249 27.1903 45.833 27.1903V22.8153ZM72.8118 54.1673C72.8118 55.3755 73.7911 56.3548 74.9993 56.3548C76.2074 56.3548 77.1868 55.3755 77.1868 54.1673H72.8118ZM26.5464 76.5473L74.4833 28.6312L71.3904 25.537L23.4535 73.453L26.5464 76.5473ZM45.833 27.1903C59.359 27.1903 65.9993 27.7115 69.2168 28.2056C70.8477 28.4561 71.4544 28.6795 71.598 28.7457C71.6679 28.7779 71.4954 28.7137 71.2822 28.4845C71.1676 28.3613 71.0311 28.1792 70.9237 27.9318C70.87 27.8082 70.8258 27.6731 70.7953 27.5278C70.7801 27.4555 70.7686 27.382 70.7609 27.3075C70.757 27.2703 70.7542 27.233 70.7522 27.1957C70.7513 27.1771 70.7506 27.1585 70.7501 27.1399C70.7499 27.1306 70.7496 27.1166 70.7496 27.112C70.7494 27.098 70.7494 27.0841 72.9369 27.0841C75.1244 27.0841 75.1243 27.0702 75.1242 27.0562C75.1241 27.0515 75.1239 27.0375 75.1237 27.0282C75.1232 27.0094 75.1225 26.9906 75.1215 26.9717C75.1196 26.9339 75.1166 26.8959 75.1127 26.8577C75.1048 26.7812 75.0928 26.7047 75.0768 26.6285C75.0447 26.4753 74.9971 26.3285 74.9369 26.1897C74.8162 25.9118 74.6532 25.6849 74.4856 25.5048C74.1666 25.1618 73.7824 24.9351 73.4288 24.7721C72.7254 24.4481 71.6381 24.1512 69.881 23.8813C66.3226 23.3348 59.4108 22.8153 45.833 22.8153V27.1903ZM72.9369 27.0841C72.9369 29.2716 72.9228 29.2716 72.9088 29.2714C72.9041 29.2714 72.89 29.2711 72.8807 29.2709C72.8619 29.2704 72.8431 29.2697 72.8243 29.2687C72.7867 29.2668 72.7491 29.2638 72.7116 29.2599C72.6365 29.2521 72.5624 29.2404 72.4895 29.225C72.3431 29.1939 72.2071 29.149 72.0829 29.0946C71.8342 28.9858 71.6518 28.8477 71.529 28.7325C71.3007 28.5183 71.2371 28.3455 71.2695 28.4164C71.3356 28.561 71.5572 29.1686 71.8055 30.7989C72.2954 34.0152 72.8118 40.6514 72.8118 54.1673H77.1868C77.1868 40.6001 76.672 33.6946 76.1306 30.1402C75.8633 28.385 75.5694 27.2999 75.2488 26.5982C75.0878 26.2458 74.8631 25.8615 74.522 25.5415C74.3428 25.3734 74.1161 25.2089 73.8372 25.0868C73.6979 25.0258 73.5503 24.9776 73.3961 24.9449C73.3193 24.9287 73.2422 24.9165 73.1651 24.9085C73.1266 24.9045 73.0883 24.9015 73.0502 24.8995C73.0312 24.8986 73.0122 24.8978 72.9933 24.8973C72.9838 24.8971 72.9697 24.8969 72.965 24.8968C72.9509 24.8967 72.9369 24.8966 72.9369 27.0841Z" fill="white"/>
</g>
</svg>
