<svg width="24" height="24" viewBox="0 0 24 24" fill="none" xmlns="http://www.w3.org/2000/svg">
<path d="M12.75 8C12.75 7.58579 12.4142 7.25 12 7.25C11.5858 7.25 11.25 7.58579 11.25 8H12.75ZM14.2232 15.1495C14.5819 15.3566 15.0406 15.2337 15.2477 14.875C15.4548 14.5163 15.3319 14.0576 14.9731 13.8505L14.2232 15.1495ZM12 10.6906H11.25H12ZM12.268 12.8453L12.9175 12.4703L12.268 12.8453ZM11.25 8L11.25 10.6906L12.75 10.6906L12.75 8H11.25ZM14.9731 13.8505L14.375 13.5052L13.625 14.8042L14.2232 15.1495L14.9731 13.8505ZM21.25 12C21.25 17.1086 17.1086 21.25 12 21.25V22.75C17.9371 22.75 22.75 17.9371 22.75 12H21.25ZM12 21.25C6.89137 21.25 2.75 17.1086 2.75 12H1.25C1.25 17.9371 6.06294 22.75 12 22.75V21.25ZM2.75 12C2.75 6.89137 6.89137 2.75 12 2.75V1.25C6.06294 1.25 1.25 6.06294 1.25 12H2.75ZM12 2.75C17.1086 2.75 21.25 6.89137 21.25 12H22.75C22.75 6.06294 17.9371 1.25 12 1.25V2.75ZM11.25 10.6906C11.25 11.2395 11.2492 11.7051 11.2871 12.0901C11.3267 12.4915 11.4125 12.8636 11.6184 13.2203L12.9175 12.4703C12.8555 12.3629 12.8073 12.2211 12.7799 11.943C12.7508 11.6484 12.75 11.2687 12.75 10.6906L11.25 10.6906ZM14.375 13.5052C13.8744 13.2161 13.5459 13.0255 13.3054 12.8531C13.0782 12.6903 12.9795 12.5777 12.9175 12.4703L11.6184 13.2203C11.8244 13.577 12.1037 13.8373 12.4315 14.0723C12.746 14.2977 13.1496 14.5297 13.625 14.8042L14.375 13.5052Z" fill="url(#paint0_linear_772_5613)"/>
<defs>
<linearGradient id="paint0_linear_772_5613" x1="2" y1="2" x2="23.994" y2="4.50712" gradientUnits="userSpaceOnUse">
<stop stop-color="#23618D"/>
<stop offset="1" stop-color="#277097"/>
</linearGradient>
</defs>
</svg>
