<svg width="16" height="16" viewBox="0 0 16 16" fill="none" xmlns="http://www.w3.org/2000/svg">
<g id="Danger Circle">
<path id="Vector" d="M8.66666 10.6667C8.66666 11.0349 8.36818 11.3333 7.99999 11.3333C7.63181 11.3333 7.33333 11.0349 7.33333 10.6667C7.33333 10.2985 7.63181 10 7.99999 10C8.36818 10 8.66666 10.2985 8.66666 10.6667Z" fill="url(#paint0_linear_4338_2820)"/>
<path id="Vector_2" d="M8 4.66671V8.66671M14.6667 8.00004C14.6667 11.6819 11.6819 14.6667 8 14.6667C4.3181 14.6667 1.33333 11.6819 1.33333 8.00004C1.33333 4.31814 4.3181 1.33337 8 1.33337C11.6819 1.33337 14.6667 4.31814 14.6667 8.00004Z" stroke="url(#paint1_linear_4338_2820)" stroke-linecap="round"/>
</g>
<defs>
<linearGradient id="paint0_linear_4338_2820" x1="7.33333" y1="10.9778" x2="8.69762" y2="10.9325" gradientUnits="userSpaceOnUse">
<stop stop-color="#369AAC"/>
<stop offset="1" stop-color="#05ADC5"/>
</linearGradient>
<linearGradient id="paint1_linear_4338_2820" x1="1.33333" y1="11.1112" x2="14.9762" y2="10.6582" gradientUnits="userSpaceOnUse">
<stop stop-color="#369AAC"/>
<stop offset="1" stop-color="#05ADC5"/>
</linearGradient>
</defs>
</svg>
