<svg width="46" height="54" viewBox="0 0 46 54" fill="none" xmlns="http://www.w3.org/2000/svg">
<path opacity="0.3" d="M3.06332 40.0245C3.65486 38.0308 6.67828 32.4002 10.9492 29.6367L10.4125 40.3608C10.3729 40.7616 10.3151 41.159 10.2402 41.5487C9.05451 47.7496 4.39658 51.505 1 53.5C1.2887 50.2559 2.25269 44.9321 3.06332 40.0245Z" fill="white"/>
<g opacity="0.6">
<path d="M4.33847 32.6573C4.33821 32.6587 4.33821 32.66 4.33821 32.6613L4.33929 32.6548C4.39714 32.3373 4.455 32.0241 4.515 31.7163C5.7375 25.3897 9.11143 21.3235 15.435 19.5188L33.7066 14.3006C32.258 18.0257 29.2002 22.9598 24.5119 25.1688C24.1639 25.3316 23.8071 25.4816 23.4418 25.6133L14.6942 27.8455C13.3584 28.2183 12.0758 28.8599 10.8712 29.6964C7.44626 32.0759 4.65509 36.0401 3.08351 39.9598C3.45436 37.6779 3.87227 35.2171 4.33714 32.6613L4.33847 32.6573Z" fill="white"/>
<path d="M4.33847 32.6573C4.33862 32.6565 4.33888 32.6557 4.33929 32.6548L4.33847 32.6573Z" fill="white"/>
</g>
<path d="M4.33821 32.6613C4.33821 32.6592 4.33821 32.657 4.33929 32.6548L4.33821 32.6613ZM4.515 31.7163C5.7375 25.3897 9.11143 21.3235 15.435 19.5188L35.2318 13.865C35.5961 13.7311 35.9518 13.5799 36.2989 13.4125C41.7911 10.7719 44.9671 4.29836 46 0.5L8.01429 11.5938C5.98821 12.3865 0.158571 14.1058 0 22.7437L1 53.5C1.32571 51.9329 2.44071 43.0876 4.33714 32.6613L4.33929 32.6548C4.39714 32.3373 4.455 32.0241 4.515 31.7163Z" fill="white"/>
</svg>
