<svg width="125" height="56" viewBox="0 0 125 56" fill="none" xmlns="http://www.w3.org/2000/svg">
<path opacity="0.3" d="M3.38862 40.0245C4.04298 38.0308 7.38748 32.4002 12.112 29.6367L11.5183 40.3608C11.4745 40.7616 11.4105 41.159 11.3277 41.5487C10.0161 47.7496 4.86347 51.505 1.10619 53.5C1.42555 50.2559 2.49191 44.9321 3.38862 40.0245Z" fill="url(#paint0_linear_856_1940)"/>
<g opacity="0.6">
<path d="M4.79919 32.6573C4.79891 32.6586 4.79891 32.66 4.79891 32.6613L4.8001 32.6548C4.8641 32.3373 4.9281 32.0241 4.99447 31.7163C6.34679 25.3897 10.079 21.3235 17.0741 19.5188L37.286 14.3006C35.6837 18.0257 32.3011 22.9598 27.1149 25.1688C26.7299 25.3316 26.3353 25.4816 25.9312 25.6133L16.2546 27.8455C14.777 28.2183 13.3581 28.8599 12.0256 29.6964C8.23702 32.0758 5.14944 36.0401 3.41096 39.9598C3.82119 37.6779 4.28349 35.2171 4.79773 32.6613L4.79919 32.6573Z" fill="url(#paint1_linear_856_1940)"/>
<path d="M4.79919 32.6573C4.79936 32.6565 4.79964 32.6557 4.8001 32.6548L4.79919 32.6573Z" fill="url(#paint2_linear_856_1940)"/>
</g>
<path d="M4.79891 32.6613C4.79891 32.6592 4.79891 32.657 4.8001 32.6548L4.79891 32.6613ZM4.99447 31.7163C6.34679 25.3897 10.079 21.3235 17.0741 19.5188L38.9732 13.865C39.3762 13.7311 39.7697 13.5799 40.1537 13.4125C46.2291 10.7719 49.7424 4.29836 50.885 0.5L8.86536 11.5938C6.62413 12.3865 0.175411 14.1058 0 22.7437L1.10619 53.5C1.4665 51.9329 2.6999 43.0876 4.79772 32.6613L4.8001 32.6548C4.8641 32.3373 4.9281 32.0241 4.99447 31.7163Z" fill="url(#paint3_linear_856_1940)"/>
<path d="M120.575 48C118.363 53.5 113.938 55.5 110.619 55.5C110.619 55.0383 110.619 53.7568 110.619 53C110.619 51.2891 112.588 51.1337 113.744 50.5C114.901 49.8663 115.044 49 115.044 49C115.044 49 112.318 41.6429 110.693 37.5C110.693 37.5 109.513 34.5 111.726 34.5C112.279 34.5 113.938 34.5 113.938 34.5L117.81 44.5L120.575 34.5H125C125 34.5 122.788 42.5 120.575 48ZM103.982 27.5C103.982 27.5 103.982 25.5 106.195 25.5C106.748 25.5 108.407 25.5 108.407 25.5C108.407 25.5 108.407 44.5 108.407 46.5C108.407 48.5 106.195 48.5 106.195 48.5H103.982V27.5ZM98.4513 31.5H96.2389V29.5C96.2389 29.5 96.2389 27.5 98.4513 27.5C99.0044 27.5 100.664 27.5 100.664 27.5C100.664 27.5 100.664 28.5 100.664 29.5C100.664 31.5 98.4513 31.5 98.4513 31.5ZM88.4956 39.5C88.4956 38.5 87.9425 37.5 86.2832 37.5C84.6239 37.5 84.0708 38.5 84.0708 39.5C84.0708 39.5 84.0708 44.5 84.0708 46.5C84.0708 48.5 81.8584 48.5 81.8584 48.5H79.742L79.646 39.5C79.646 38.5 79.0929 37.5 77.4336 37.5C75.7743 37.5 75.2212 38.5 75.2212 39.5C75.2212 39.5 75.2212 44.5 75.2212 46.5C75.2212 48.5 73.0089 48.5 73.0089 48.5H70.8003V36.5C70.8003 36.5 70.8003 34.5 73.0089 34.5C73.5619 34.5 75.2212 34.5 75.2212 34.5V35.5226C75.7743 35 76.5262 34.5 77.4336 34.5C80.9119 34.5 81.8584 35.5 81.8584 36.5C81.8584 35.5226 84.0708 34.5 86.2832 34.5C89.6018 34.5 92.9204 35 92.9204 39.5C92.9204 39.5 92.9204 44.5 92.9204 46.5C92.9204 48.5 90.708 48.5 90.708 48.5H88.4956V39.5ZM63.0531 47C61.9469 48 60.9179 48.5 58.6283 48.5C54.7566 48.5 51.9911 45.5422 51.9911 41.534C51.9911 37.5247 54.7566 34.5 58.6283 34.5C60.8407 34.5 61.9469 35 63.0531 36V34.5H67.4779C67.4779 34.5 67.4779 44.5 67.4779 46.5C67.4779 48.5 65.2655 48.5 65.2655 48.5H63.0531V47ZM59.7345 38.5C58.0752 38.5 56.4159 39.5 56.4159 41.5C56.4159 43.5 58.0752 44.5 59.7345 44.5C61.3938 44.5 63.0531 43.5 63.0531 41.5C63.0531 39.5 61.3938 38.5 59.7345 38.5ZM43.1416 35.5226H49.7788C49.7788 35.5226 49.7788 35.5 49.7788 37.5C49.7788 39.5 47.5664 39.5 47.5664 39.5H43.1416C43.1416 39.5 43.1416 44.5 43.1416 46.5C43.1416 48.5 40.9292 48.5 40.9292 48.5H38.7168L38.7168 29.5C38.7168 29.5 38.7168 27.5 40.9292 27.5C43.1416 27.5 51.9911 27.5 51.9911 27.5C51.9911 27.5 51.9911 27.5 51.9911 29.5C51.9911 31.5 49.7788 31.5 49.7788 31.5H43.1416V35.5226ZM98.4513 48.5H96.2366L96.2389 34.5H100.664C100.664 34.5 100.664 44.5 100.664 46.5C100.664 48.5 98.4513 48.5 98.4513 48.5Z" fill="#3C4D5C"/>
<defs>
<linearGradient id="paint0_linear_856_1940" x1="1.10619" y1="29.6367" x2="13.3327" y2="30.2795" gradientUnits="userSpaceOnUse">
<stop stop-color="#23618D"/>
<stop offset="1" stop-color="#277097"/>
</linearGradient>
<linearGradient id="paint1_linear_856_1940" x1="3.41096" y1="14.3006" x2="40.3118" y2="19.8538" gradientUnits="userSpaceOnUse">
<stop stop-color="#23618D"/>
<stop offset="1" stop-color="#277097"/>
</linearGradient>
<linearGradient id="paint2_linear_856_1940" x1="3.41096" y1="14.3006" x2="40.3118" y2="19.8538" gradientUnits="userSpaceOnUse">
<stop stop-color="#23618D"/>
<stop offset="1" stop-color="#277097"/>
</linearGradient>
<linearGradient id="paint3_linear_856_1940" x1="0" y1="0.5" x2="56.0145" y2="6.63032" gradientUnits="userSpaceOnUse">
<stop stop-color="#23618D"/>
<stop offset="1" stop-color="#277097"/>
</linearGradient>
</defs>
</svg>
