<svg width="100" height="100" viewBox="0 0 100 100" fill="none" xmlns="http://www.w3.org/2000/svg">
<rect x="10" y="19" width="76" height="54" rx="1" stroke="#3C4D5C" stroke-width="2.5" stroke-linecap="round"/>
<rect x="17" y="27" width="22" height="12" rx="1" fill="#E1E8F6"/>
<rect x="79.4707" y="76.3125" width="6" height="14" rx="1" transform="rotate(-35 79.4707 76.3125)" fill="white" stroke="#3C4D5C" stroke-width="2.5" stroke-linecap="round"/>
<path d="M61.3911 40.7932C61.3686 40.3234 61.6767 39.9014 62.1311 39.7796L68.3015 38.1262C68.7559 38.0045 69.2337 38.2159 69.4492 38.6341L70.9909 41.6256C71.1617 41.9569 71.5026 42.1636 71.8751 42.1773C73.0724 42.2214 74.2525 42.3792 75.4014 42.6427C75.7648 42.726 76.1477 42.6147 76.3984 42.3388L78.6629 39.8471C78.9793 39.4989 79.4955 39.4184 79.9029 39.6536L85.4352 42.8476C85.8426 43.0829 86.0309 43.5702 85.8876 44.0183L84.862 47.2252C84.7484 47.5803 84.8435 47.9676 85.0973 48.2406C85.9 49.1038 86.6267 50.047 87.2637 51.0619C87.4618 51.3776 87.8112 51.5695 88.1835 51.5517L91.5451 51.3911C92.015 51.3687 92.437 51.6768 92.5587 52.1312L94.2121 58.3016C94.3339 58.756 94.1224 59.2338 93.7043 59.4493L90.7127 60.991C90.3814 61.1618 90.1748 61.5027 90.1611 61.8751C90.117 63.0725 89.9592 64.2526 89.6957 65.4015C89.6123 65.7649 89.7237 66.1478 89.9996 66.3985L92.4913 68.663C92.8394 68.9794 92.92 69.4957 92.6847 69.9031L89.4907 75.4353C89.2555 75.8427 88.7681 76.0311 88.3201 75.8878L85.1131 74.8621C84.758 74.7486 84.3707 74.8436 84.0977 75.0975C83.2345 75.9001 82.2914 76.6268 81.2764 77.2638C80.9608 77.4619 80.7688 77.8113 80.7866 78.1835L80.9472 81.5452C80.9697 82.0151 80.6616 82.4371 80.2072 82.5588L74.0368 84.2122C73.5824 84.3339 73.1046 84.1225 72.8891 83.7044L71.3473 80.7128C71.1766 80.3815 70.8357 80.1749 70.4632 80.1612C69.2658 80.117 68.0857 79.9592 66.9367 79.6957C66.5734 79.6124 66.1904 79.7237 65.9397 79.9996L63.6752 82.4913C63.3588 82.8395 62.8426 82.92 62.4352 82.6848L56.9029 79.4908C56.4955 79.2556 56.3072 78.7682 56.4505 78.3201L57.4761 75.1131C57.5897 74.758 57.4947 74.3707 57.2408 74.0977C56.4382 73.2345 55.7115 72.2914 55.0746 71.2765C54.8765 70.9608 54.5271 70.7689 54.1548 70.7867L50.7932 70.9473C50.3233 70.9697 49.9013 70.6616 49.7795 70.2073L48.1262 64.0369C48.0044 63.5825 48.2158 63.1046 48.634 62.8891L51.6256 61.3474C51.9569 61.1767 52.1635 60.8357 52.1772 60.4633C52.2213 59.2659 52.3791 58.0858 52.6426 56.9369C52.726 56.5735 52.6146 56.1906 52.3387 55.9398L49.847 53.6754C49.4989 53.359 49.4183 52.8427 49.6535 52.4353L52.8476 46.9031C53.0828 46.4957 53.5702 46.3073 54.0182 46.4506L57.2252 47.4763C57.5803 47.5898 57.9676 47.4948 58.2406 47.2409C59.1038 46.4383 60.0469 45.7116 61.0618 45.0747C61.3775 44.8766 61.5694 44.5272 61.5517 44.1549L61.3911 40.7932Z" fill="#E1E8F6"/>
<circle cx="71.1688" cy="61.1692" r="13" transform="rotate(-15 71.1688 61.1692)" fill="white" stroke="#3C4D5C" stroke-width="2.5" stroke-linecap="round"/>
<circle cx="71.1691" cy="61.1691" r="8" transform="rotate(-15 71.1691 61.1691)" stroke="#3C4D5C" stroke-width="2.5" stroke-linecap="round"/>
<path d="M45 80H14.0098M10.0098 80H9.99976" stroke="#3C4D5C" stroke-width="2.5" stroke-linecap="round"/>
<path d="M51 12H81.9902M85.9902 12H86.0002" stroke="#3C4D5C" stroke-width="2.5" stroke-linecap="round"/>
<path d="M80.9904 24H81.0004M76.9902 24H77.0002M73 24H73.01" stroke="#3C4D5C" stroke-width="2.5" stroke-linecap="round"/>
<path d="M29.5 47H18" stroke="#3C4D5C" stroke-width="2.5" stroke-linecap="round"/>
<path d="M29.5 53H18" stroke="#3C4D5C" stroke-width="2.5" stroke-linecap="round"/>
<path d="M29.5 59H18" stroke="#3C4D5C" stroke-width="2.5" stroke-linecap="round"/>
<path d="M29.5 65H18" stroke="#3C4D5C" stroke-width="2.5" stroke-linecap="round"/>
</svg>
