<svg width="100" height="100" viewBox="0 0 100 100" fill="none" xmlns="http://www.w3.org/2000/svg">
<path fill-rule="evenodd" clip-rule="evenodd" d="M9 12C7.34315 12 6 13.3431 6 15V82C6 83.6569 7.34315 85 9 85H43C44.6569 85 46 83.6569 46 82V15C46 13.3431 44.6569 12 43 12H9ZM26 81C27.6569 81 29 79.6569 29 78C29 76.3431 27.6569 75 26 75C24.3431 75 23 76.3431 23 78C23 79.6569 24.3431 81 26 81Z" fill="#E1E8F6"/>
<circle cx="38" cy="48" r="16" stroke="#3C4D5C" stroke-width="2.5" stroke-linecap="round"/>
<path fill-rule="evenodd" clip-rule="evenodd" d="M38 70C50.1503 70 60 60.1503 60 48C60 35.8497 50.1503 26 38 26C25.8497 26 16 35.8497 16 48C16 60.1503 25.8497 70 38 70ZM38 64C46.8366 64 54 56.8366 54 48C54 39.1634 46.8366 32 38 32C29.1634 32 22 39.1634 22 48C22 56.8366 29.1634 64 38 64Z" fill="white"/>
<path d="M58.75 48C58.75 59.4599 49.4599 68.75 38 68.75V71.25C50.8406 71.25 61.25 60.8406 61.25 48H58.75ZM38 27.25C49.4599 27.25 58.75 36.5401 58.75 48H61.25C61.25 35.1594 50.8406 24.75 38 24.75V27.25ZM17.25 48C17.25 36.5401 26.5401 27.25 38 27.25V24.75C25.1594 24.75 14.75 35.1594 14.75 48H17.25ZM38 68.75C26.5401 68.75 17.25 59.4599 17.25 48H14.75C14.75 60.8406 25.1594 71.25 38 71.25V68.75ZM52.75 48C52.75 56.1462 46.1462 62.75 38 62.75V65.25C47.5269 65.25 55.25 57.5269 55.25 48H52.75ZM38 33.25C46.1462 33.25 52.75 39.8538 52.75 48H55.25C55.25 38.4731 47.5269 30.75 38 30.75V33.25ZM23.25 48C23.25 39.8538 29.8538 33.25 38 33.25V30.75C28.4731 30.75 20.75 38.4731 20.75 48H23.25ZM38 62.75C29.8538 62.75 23.25 56.1462 23.25 48H20.75C20.75 57.5269 28.4731 65.25 38 65.25V62.75Z" fill="#3C4D5C"/>
<path fill-rule="evenodd" clip-rule="evenodd" d="M60.1253 16.8123C59.7171 16.9217 59.4217 17.2759 59.3874 17.6971L59.1848 20.1855C59.1592 20.4997 58.9853 20.781 58.7263 20.9608C58.4373 21.1613 58.1594 21.3749 57.8932 21.6005C57.6526 21.8044 57.3356 21.8997 57.0253 21.8431L54.5687 21.3946C54.1529 21.3187 53.7344 21.5123 53.5231 21.8783L52.2278 24.1218C52.0165 24.4878 52.0581 24.9471 52.3317 25.2692L53.9484 27.1725C54.1526 27.4129 54.2285 27.7351 54.1723 28.0454C54.1101 28.3887 54.0641 28.736 54.0349 29.0865C54.0087 29.4007 53.852 29.692 53.5927 29.8713L51.539 31.2909C51.1913 31.5312 51.0323 31.9641 51.1417 32.3723L51.8122 34.8746C51.9215 35.2828 52.2757 35.5782 52.697 35.6125L55.1853 35.8151C55.4995 35.8406 55.7809 36.0146 55.9606 36.2736C56.1612 36.5626 56.3748 36.8404 56.6003 37.1066C56.8042 37.3472 56.8995 37.6642 56.8429 37.9745L56.3944 40.4311C56.3185 40.8469 56.5121 41.2654 56.8781 41.4767L59.1216 42.772C59.4876 42.9833 59.9469 42.9417 60.269 42.6681L62.1722 41.0514C62.4127 40.8472 62.7348 40.7713 63.0452 40.8276C63.3884 40.8898 63.7359 40.9358 64.0864 40.965C64.4006 40.9912 64.6919 41.1479 64.8712 41.4072L66.2908 43.4609C66.5311 43.8085 66.964 43.9676 67.3722 43.8582L69.8745 43.1877C70.2827 43.0783 70.5781 42.7242 70.6124 42.3029L70.8149 39.8146C70.8405 39.5003 71.0145 39.219 71.2735 39.0393C71.5624 38.8387 71.8403 38.6251 72.1064 38.3997C72.3471 38.1958 72.664 38.1004 72.9743 38.1571L75.4309 38.6055C75.8466 38.6814 76.2652 38.4878 76.4765 38.1218L77.7718 35.8783C77.9831 35.5123 77.9415 35.053 77.6679 34.7309L76.0513 32.8278C75.8471 32.5874 75.7712 32.2652 75.8274 31.9548C75.8896 31.6115 75.9357 31.2641 75.9649 30.9135C75.9911 30.5993 76.1477 30.308 76.4071 30.1287L78.4608 28.7091C78.8084 28.4688 78.9675 28.0359 78.8581 27.6277L78.1876 25.1254C78.0782 24.7172 77.724 24.4218 77.3028 24.3875L74.8144 24.1849C74.5002 24.1594 74.2189 23.9854 74.0391 23.7264C73.8386 23.4374 73.625 23.1595 73.3995 22.8934C73.1956 22.6527 73.1002 22.3358 73.1569 22.0255L73.6053 19.5689C73.6812 19.1532 73.4876 18.7346 73.1216 18.5233L70.8781 17.228C70.5121 17.0167 70.0528 17.0583 69.7307 17.3319L67.8275 18.9486C67.5871 19.1528 67.2649 19.2287 66.9546 19.1724C66.6113 19.1102 66.2639 19.0642 65.9133 19.035C65.5992 19.0088 65.3079 18.8522 65.1286 18.5928L63.709 16.5391C63.4687 16.1915 63.0358 16.0324 62.6276 16.1418L60.1253 16.8123ZM64.9999 35C67.7614 35 69.9999 32.7614 69.9999 30C69.9999 27.2386 67.7614 25 64.9999 25C62.2385 25 59.9999 27.2386 59.9999 30C59.9999 32.7614 62.2385 35 64.9999 35Z" fill="#E1E8F6"/>
<circle cx="65" cy="30" r="5" stroke="#3C4D5C" stroke-width="2.5" stroke-linecap="round"/>
<path d="M36 47C36 49.2091 34.2091 51 32 51C29.7909 51 28 49.2091 28 47C28 44.7909 29.7909 43 32 43C34.2091 43 36 44.7909 36 47ZM36 47H41M50 47H45.5M41 47V52M41 47H45.5M45.5 47V50" stroke="#3C4D5C" stroke-width="2.5" stroke-linecap="round"/>
<path d="M68.3631 72.9253L63.5306 70.2894C63.2044 70.1115 62.8063 70.1291 62.4971 70.3353L59.3321 72.4453C58.8725 72.7517 58.7483 73.3725 59.0547 73.8321L59.3097 74.2145C59.433 74.3995 59.6145 74.5382 59.8255 74.6085L62.373 75.4577C62.4573 75.4858 62.5371 75.5247 62.611 75.5741C63.6476 76.2675 65.6143 77.6143 66 78C66.3655 78.3655 67.0372 79.3155 67.4046 79.8581C67.4682 79.952 67.5463 80.0348 67.637 80.1028L69.1 81.2C69.3518 81.3889 69.5 81.6852 69.5 82V83.882C69.5 84.2607 69.714 84.607 70.0528 84.7764L72.1724 85.8362C72.3839 85.942 72.5511 86.1193 72.6443 86.3367L73.7403 88.8939C73.8978 89.2616 74.2594 89.5 74.6594 89.5H76.1492C76.3763 89.5 76.5966 89.4227 76.7739 89.2809L78.6247 87.8002C78.8619 87.6105 79 87.3232 79 87.0194V84.4007C79 84.1435 78.9009 83.8962 78.7234 83.7102L68.6076 73.1128C68.5363 73.038 68.4538 72.9748 68.3631 72.9253Z" fill="#E1E8F6"/>
<path d="M79 47L73.2071 52.7929C72.8166 53.1834 72.8166 53.8166 73.2071 54.2071L74 55M94.5 70.5L92.7071 72.2929C92.3166 72.6834 91.6834 72.6834 91.2929 72.2929L74 55M74 55C71.199 55.3295 64.5542 56.7666 60.1518 59.8909C60.0507 59.9627 59.9669 60.0517 59.8994 60.1556C58.34 62.5558 54.7393 67.5433 52 69.5C48.5 72 52 74 54 74C55.855 74 58.5702 73.5699 61.3478 70.316C61.7171 69.8834 62.3676 69.8011 62.8471 70.1071C65.1258 71.5613 69.6095 73.2466 74.5 71.5M90 71.5C89.3333 74.3333 86.5 81.1 80.5 85.5M82 44L82.01 43.99" stroke="#3C4D5C" stroke-width="2.5" stroke-linecap="round"/>
<rect x="57.5151" y="72.2349" width="5.83884" height="10.1113" rx="2.91942" transform="rotate(42.7107 57.5151 72.2349)" stroke="#3C4D5C" stroke-width="2.5" stroke-linecap="round"/>
<rect x="63.1289" y="74.7612" width="5.83884" height="12.8455" rx="2.91942" transform="rotate(42.7107 63.1289 74.7612)" stroke="#3C4D5C" stroke-width="2.5" stroke-linecap="round"/>
<rect x="66.8848" y="79.3003" width="5.83884" height="11.7003" rx="2.91942" transform="rotate(42.7107 66.8848 79.3003)" stroke="#3C4D5C" stroke-width="2.5" stroke-linecap="round"/>
<rect x="70.6675" y="83.8115" width="5.83884" height="9.78735" rx="2.91942" transform="rotate(42.7107 70.6675 83.8115)" stroke="#3C4D5C" stroke-width="2.5" stroke-linecap="round"/>
<path d="M67.0685 71.9401L78.8493 83.7209C80.0209 84.8925 80.0209 86.792 78.8493 87.9635L78.1519 88.661C76.9803 89.8325 75.0808 89.8325 73.9093 88.661L73.7483 88.5" stroke="#3C4D5C" stroke-width="2.5" stroke-linecap="round"/>
<path d="M43.5098 8H32.0098M28.0098 8H27.9998" stroke="#3C4D5C" stroke-width="2.5" stroke-linecap="round"/>
</svg>
