<svg width="100" height="100" viewBox="0 0 100 100" fill="none" xmlns="http://www.w3.org/2000/svg">
<path d="M78 77.5H75.9826C75.1618 77.5 74.6906 76.5657 75.1785 75.9056L81.6958 67.088C82.0956 66.5472 82.9044 66.5472 83.3042 67.088L89.8215 75.9056C90.3094 76.5657 89.8382 77.5 89.0174 77.5H87C86.4477 77.5 86 77.9477 86 78.5V90C86 90.5523 85.5523 91 85 91H80C79.4477 91 79 90.5523 79 90V78.5C79 77.9477 78.5523 77.5 78 77.5Z" stroke="#3C4D5C" stroke-width="2.5" stroke-linecap="round"/>
<path d="M13.0001 30H10.9828C10.1619 30 9.69069 29.0657 10.1786 28.4056L16.6959 19.588C17.0957 19.0472 17.9046 19.0472 18.3043 19.588L24.8217 28.4056C25.3095 29.0657 24.8383 30 24.0175 30H22.0001C21.4478 30 21.0001 30.4477 21.0001 31V61C21.0001 61.5523 20.5524 62 20.0001 62H15.0001C14.4478 62 14.0001 61.5523 14.0001 61V31C14.0001 30.4477 13.5524 30 13.0001 30Z" fill="#E1E8F6"/>
<path d="M44.5001 71C47.5584 71 50.3382 72.1939 52.3981 74.1411C52.6808 74.4082 53.0841 74.5089 53.4593 74.4063C54.4278 74.1414 55.4473 74 56.5001 74C60.4467 74 63.9292 75.9881 66.0003 79.0174C66.2759 79.4206 66.7854 79.6022 67.254 79.4646C68.2835 79.1622 69.3729 79 70.5001 79C76.3291 79 81.1455 83.337 81.8979 88.9602C81.9733 89.5242 81.5147 90 80.9457 90H66.408C66.1533 90 65.9094 89.9003 65.7158 89.7347C62.644 87.1093 58.3875 87.38 55.7467 88.0904C55.1086 88.262 54.3966 87.8423 54.0654 87.2704C53.1964 85.7698 50.9158 84 46.0001 84C40.8476 84 37.9421 87.0247 36.6572 89.4214C36.4714 89.7681 36.1189 90 35.7255 90H18.0598C17.4891 90 17.0295 89.5217 17.1126 88.9572C17.8587 83.8896 22.2253 80 27.5001 80C28.9468 80 30.3255 80.2926 31.5798 80.822C32.2701 81.1133 33.1178 80.6848 33.283 79.954C34.4416 74.8279 39.0242 71 44.5001 71Z" fill="#E1E8F6"/>
<path d="M57.4014 59.0078C57.159 58.6788 57.1404 58.2389 57.3488 57.8874C59.7731 53.7984 63.3964 45.9213 64.9831 36.8121C65.119 36.0321 66.039 35.7015 66.562 36.2958C69.2199 39.3163 72.4076 45.1726 70.333 52C68.3607 58.491 66.4772 64.1042 65.386 67.2372C65.1232 67.9918 64.1269 68.1375 63.653 67.4942L57.4014 59.0078Z" fill="#E1E8F6"/>
<path d="M44.5989 59.0078C44.8413 58.6788 44.8598 58.2389 44.6514 57.8874C42.2271 53.7984 38.6038 45.9213 37.0171 36.8121C36.8813 36.0321 35.9613 35.7015 35.4383 36.2958C32.7804 39.3163 29.5927 45.1726 31.6672 52C33.6396 58.491 35.523 64.1042 36.6142 67.2372C36.877 67.9918 37.8733 68.1375 38.3472 67.4942L44.5989 59.0078Z" fill="#E1E8F6"/>
<path d="M11 91H91M22 96L74 96M78 96H78.01M56.2502 91C54.6501 86.9026 50.6641 84 46.0001 84C41.3362 84 37.3501 86.9026 35.75 91M67.5001 91.0174C65.4827 88.5644 62.4241 87 59.0001 87C57.3622 87 55.8967 87.358 54.5 88" stroke="#3C4D5C" stroke-width="2.5" stroke-linecap="round"/>
<path d="M45 59C42 54.3333 36 41.6 36 28C36 21.8801 38.0249 16.7456 40.708 12.706M45 59V75M45 59H50M57 59C60 54.3333 66 41.6 66 28C66 21.8801 63.9751 16.7456 61.292 12.706M57 59V79M57 59H50M50 59V64M50 68V68.01M40.708 12.706C43.8076 8.03929 47.7855 4.83368 50.5344 3.25777C50.8236 3.09199 51.1764 3.09199 51.4656 3.25777C54.2145 4.83368 58.1924 8.03929 61.292 12.706M40.708 12.706C45.002 17 56.998 17 61.292 12.706M47 38H55M47 42H55M57 27C57 30.3137 54.3137 33 51 33C47.6863 33 45 30.3137 45 27C45 23.6863 47.6863 21 51 21C54.3137 21 57 23.6863 57 27Z" stroke="#3C4D5C" stroke-width="2.5" stroke-linecap="round"/>
</svg>
