<svg width="18" height="17" viewBox="0 0 18 17" fill="none" xmlns="http://www.w3.org/2000/svg">
<path id="Vector" d="M17.6601 0.719953C17.3531 0.465552 16.8708 0.429152 16.3722 0.624753H16.3713C15.8469 0.830354 1.52653 6.83197 0.943561 7.07717C0.837529 7.11317 -0.088506 7.45077 0.00688135 8.20278C0.092034 8.88078 0.836301 9.16158 0.927185 9.19398L4.56787 10.412C4.80941 11.1976 5.69983 14.096 5.89674 14.7152C6.01956 15.1012 6.21975 15.6084 6.5706 15.7128C6.87846 15.8288 7.18468 15.7228 7.38282 15.5708L9.60866 13.5536L13.2019 16.2916L13.2874 16.3416C13.5314 16.4472 13.7652 16.5 13.9883 16.5C14.1606 16.5 14.326 16.4684 14.4841 16.4052C15.0224 16.1892 15.2377 15.688 15.2603 15.6312L17.9442 2.00036C18.108 1.27235 17.8803 0.901954 17.6601 0.719953ZM7.7787 10.8992L6.55054 14.0992L5.32237 10.0992L14.7383 3.29916L7.7787 10.8992Z" fill="#86919E"/>
</svg>
