<svg width="18" height="21" viewBox="0 0 18 21" fill="none" xmlns="http://www.w3.org/2000/svg">
<path id="Vector" d="M17.4784 4.91604C17.1436 3.70342 16.4806 2.74556 15.5096 2.06792C14.2842 1.21026 12.8746 0.907958 11.6576 0.722839C9.97342 0.468088 8.44832 0.432423 6.99353 0.612447C5.63082 0.782281 4.6046 1.05232 3.66878 1.48879C1.83397 2.34475 0.732416 3.7289 0.395923 5.60217C0.231862 6.51248 0.121371 7.33447 0.0577561 8.11911C-0.0895642 9.93293 0.0443633 11.5379 0.466235 13.0256C0.878062 14.476 1.59625 15.512 2.66265 16.193C2.93385 16.3662 3.28206 16.4919 3.61855 16.6125C3.8094 16.6804 3.99523 16.7467 4.14757 16.8197C4.28819 16.8859 4.28819 16.8978 4.28652 17.0167C4.2748 18.0476 4.28652 20.0686 4.28652 20.0686L4.28987 20.5H5.05325L5.17714 20.3777C5.25917 20.2996 7.15089 18.445 7.82555 17.6977L7.91763 17.5941C8.03314 17.4583 8.03314 17.4583 8.152 17.4566C9.06271 17.4379 9.99351 17.4022 10.9176 17.3513C12.0376 17.2901 13.335 17.1797 14.5571 16.6635C15.6754 16.1896 16.4923 15.4373 16.9828 14.4284C17.4951 13.3755 17.7981 12.2359 17.912 10.9434C18.1129 8.67107 17.9706 6.69929 17.4784 4.91604ZM13.4505 13.7525C13.1693 14.2161 12.7507 14.5388 12.2569 14.7477C11.8953 14.9006 11.527 14.8683 11.1704 14.7155C8.18548 13.4332 5.84343 11.4139 4.29656 8.50972C3.97681 7.91191 3.75583 7.25975 3.50137 6.62796C3.44947 6.49889 3.45282 6.34604 3.42938 6.20338C3.45114 5.18268 4.2229 4.60694 5.00303 4.43371C5.30102 4.36578 5.56553 4.47277 5.78651 4.68846C6.39923 5.27948 6.88304 5.96731 7.24799 6.73836C7.40703 7.07633 7.33504 7.37523 7.06384 7.62659C7.00692 7.67924 6.94833 7.72679 6.88639 7.77434C6.26697 8.24648 6.17657 8.60483 6.50637 9.31643C7.06886 10.5274 8.00301 11.3409 9.21003 11.8453C9.52811 11.9777 9.82777 11.9115 10.0705 11.65C10.104 11.616 10.1408 11.582 10.1643 11.5413C10.6397 10.7362 11.3311 10.8161 11.9689 11.2746C12.3875 11.5769 12.7943 11.8962 13.2078 12.2036C13.8389 12.6741 13.8339 13.1156 13.4505 13.7525ZM9.49128 5.71765C9.35065 5.71765 9.21003 5.72954 9.07108 5.75332C8.83671 5.79238 8.6174 5.63274 8.57722 5.39497C8.53872 5.1589 8.69608 4.93472 8.93046 4.89566C9.11461 4.86339 9.30378 4.8481 9.49128 4.8481C11.3478 4.8481 12.8579 6.38001 12.8579 8.26346C12.8579 8.45538 12.8428 8.64729 12.811 8.83241C12.7759 9.0447 12.595 9.19585 12.3891 9.19585C12.3657 9.19585 12.3423 9.19415 12.3171 9.18906C12.0844 9.15 11.9271 8.92582 11.9656 8.68975C11.989 8.55048 12.0007 8.40782 12.0007 8.26346C12.0007 6.86064 10.8741 5.71765 9.49128 5.71765ZM11.5722 8.3263C11.5722 8.56577 11.3797 8.76108 11.1436 8.76108C10.9076 8.76108 10.715 8.56577 10.715 8.3263C10.715 7.60791 10.1375 7.02198 9.42934 7.02198C9.19329 7.02198 9.00077 6.82667 9.00077 6.5872C9.00077 6.34774 9.19329 6.15243 9.42934 6.15243C10.6112 6.15243 11.5722 7.12728 11.5722 8.3263ZM14.0197 9.29266C13.9745 9.49476 13.797 9.63063 13.6012 9.63063C13.5694 9.63063 13.5376 9.62723 13.5058 9.62044C13.2747 9.56609 13.1308 9.33342 13.1827 9.09905C13.2446 8.82222 13.2764 8.5352 13.2764 8.24648C13.2764 6.13375 11.5805 4.41333 9.49797 4.41333C9.21338 4.41333 8.93046 4.4456 8.65758 4.50844C8.42655 4.56278 8.1972 4.41503 8.14531 4.18066C8.09173 3.94629 8.23738 3.71361 8.46841 3.66097C8.80322 3.58284 9.14976 3.54378 9.49797 3.54378C12.0543 3.54378 14.1335 5.65312 14.1335 8.24648C14.1335 8.59974 14.095 8.95129 14.0197 9.29266Z" fill="#86919E"/>
</svg>
